HIERARCHY
ROOT Hips
{
 OFFSET 0.000000 0.000000 0.000000
 CHANNELS 6 Xposition Yposition Zposition Yrotation Xrotation Zrotation
 JOINT Chest
 {
  OFFSET 0.000000 10.678932 0.006280
  CHANNELS 3 Yrotation Xrotation Zrotation
  JOINT Chest2
  {
   OFFSET 0.000000 10.491159 -0.011408
   CHANNELS 3 Yrotation Xrotation Zrotation
   JOINT Chest3
   {
    OFFSET 0.000000 9.479342 0.000000
    CHANNELS 3 Yrotation Xrotation Zrotation
    JOINT Chest4
    {
     OFFSET 0.000000 9.479342 0.000000
     CHANNELS 3 Yrotation Xrotation Zrotation
     JOINT Neck
     {
      OFFSET 0.000000 13.535332 0.000000
      CHANNELS 3 Yrotation Xrotation Zrotation
      JOINT Head
      {
       OFFSET 0.000000 8.819083 -0.027129
       CHANNELS 3 Yrotation Xrotation Zrotation
       End Site
       {
        OFFSET 0.000000 16.966594 -0.014170
       }
      }
     }
     JOINT RightCollar
     {
      OFFSET -3.012546 7.545150 0.000000
      CHANNELS 3 Yrotation Xrotation Zrotation
      JOINT RightShoulder
      {
       OFFSET -13.683099 0.000000 0.000000
       CHANNELS 3 Yrotation Xrotation Zrotation
       JOINT RightElbow
       {
        OFFSET -26.359998 0.000000 0.000000
        CHANNELS 3 Yrotation Xrotation Zrotation
        JOINT RightWrist
        {
         OFFSET -21.746691 0.000000 0.008601
         CHANNELS 3 Yrotation Xrotation Zrotation
         End Site
         {
          OFFSET -16.348058 0.000000 0.000000
         }
        }
       }
      }
     }
     JOINT LeftCollar
     {
      OFFSET 3.012546 7.545150 0.000000
      CHANNELS 3 Yrotation Xrotation Zrotation
      JOINT LeftShoulder
      {
       OFFSET 13.683099 0.000000 0.000000
       CHANNELS 3 Yrotation Xrotation Zrotation
       JOINT LeftElbow
       {
        OFFSET 26.359998 0.000000 0.000000
        CHANNELS 3 Yrotation Xrotation Zrotation
        JOINT LeftWrist
        {
         OFFSET 21.746691 0.000000 0.008601
         CHANNELS 3 Yrotation Xrotation Zrotation
         End Site
         {
          OFFSET 16.348058 0.000000 0.000000
         }
        }
       }
      }
     }
    }
   }
  }
 }
 JOINT RightHip
 {
  OFFSET -8.622479 -0.030774 -0.003140
  CHANNELS 3 Yrotation Xrotation Zrotation
  JOINT RightKnee
  {
   OFFSET 0.000000 -37.209160 -0.002630
   CHANNELS 3 Yrotation Xrotation Zrotation
   JOINT RightAnkle
   {
    OFFSET 0.000000 -37.343279 -0.058479
    CHANNELS 3 Yrotation Xrotation Zrotation
    JOINT RightToe
    {
     OFFSET 0.000000 -8.903465 15.088070
     CHANNELS 3 Yrotation Xrotation Zrotation
     End Site
     {
      OFFSET 0.000000 -1.471739 6.884388
     }
    }
   }
  }
 }
 JOINT LeftHip
 {
  OFFSET 8.622479 -0.030774 -0.003140
  CHANNELS 3 Yrotation Xrotation Zrotation
  JOINT LeftKnee
  {
   OFFSET 0.000000 -37.209160 -0.002630
   CHANNELS 3 Yrotation Xrotation Zrotation
   JOINT LeftAnkle
   {
    OFFSET 0.000000 -37.343279 -0.058479
    CHANNELS 3 Yrotation Xrotation Zrotation
    JOINT LeftToe
    {
     OFFSET 0.000000 -8.903465 15.088070
     CHANNELS 3 Yrotation Xrotation Zrotation
     End Site
     {
      OFFSET 0.000000 -1.471739 6.884388
     }
    }
   }
  }
 }
}
MOTION
Frames: 15
Frame Time: 0.025000
-141.180254 80.312399 93.366811 66.630055 -4.700283 -4.279641 0.203386 10.663667 0.517261 -0.002434 0.790096 0.025284 -0.003619 1.222672 0.039116 -0.007007 9.043261 0.289635 -5.760214 10.009469 0.081624 -11.224548 -17.350504 2.817995 -3.512206 -3.703954 4.298961 -7.070213 0.771255 76.146859 15.524525 15.013669 5.508982 -1.110714 5.929647 -20.103075 2.574314 -2.846094 -7.370198 6.276395 0.975619 -77.427913 -20.765889 17.060411 7.294917 -6.666787 -0.681914 10.707717 3.725087 -12.621383 3.614734 7.211742 42.559746 1.935487 4.108228 -19.275084 6.308552 0.191091 -4.774723 -5.258131 -3.462354 -39.918224 11.596846 -173.761304 64.375625 -168.179732 -0.168265 -11.988981 -1.614840 0.135899 -1.790137 0.582436
-140.791549 79.084738 94.962246 69.183282 -5.552582 -4.368356 1.261922 12.079656 0.534368 0.096089 1.057132 0.031374 0.146318 1.607021 0.048401 0.962244 10.212566 0.381372 -4.212827 8.652598 0.216617 -8.388102 -19.968486 2.486965 -2.700517 -3.962582 7.088945 -11.046790 -1.784495 72.261658 18.173719 14.955528 6.216404 0.707402 5.849964 -16.536816 3.104170 -4.565396 -10.066131 7.721087 -1.093955 -75.390422 -24.274216 15.970569 6.814808 -9.490464 -1.335871 4.072728 -0.261625 -11.157510 5.282889 6.997750 45.112141 2.225680 4.217037 -24.391625 -0.093439 0.091862 -1.361598 -0.745804 -3.728593 -44.994402 15.928433 -176.955724 56.586550 -169.509212 -1.335428 -12.751878 -0.943955 -0.003839 -0.809936 0.192930
-140.158115 78.041015 96.252114 71.902724 -6.690054 -4.214870 2.061170 13.059321 0.373444 0.187350 1.263969 0.046426 0.281704 1.897598 0.071268 1.677770 10.955828 0.546823 -2.452858 7.711511 -0.068758 -4.831412 -21.821615 1.114060 -2.182716 -3.620096 8.432531 -13.174632 -3.915832 69.923192 19.010060 12.371019 5.613618 2.911207 5.623915 -11.885736 3.310005 -3.631282 -11.021046 7.566544 -4.281635 -75.862182 -26.107915 10.776422 7.082063 -9.630644 -2.437516 0.108854 -3.743336 -9.793023 6.020998 3.334259 48.120267 -0.732925 5.811266 -28.274176 -2.744117 0.073219 -0.132018 0.728014 -4.231702 -48.708263 19.604508 -177.135435 52.551827 -168.800967 0.077312 -13.093363 -0.269074 -0.327291 0.376253 -0.200953
-139.428836 77.545595 97.066960 75.462453 -7.267312 -3.821942 2.287429 13.120357 -0.142845 0.219501 1.303343 0.029626 0.329072 1.952120 0.046243 1.910067 11.079014 0.416721 -0.804677 7.615009 -0.532571 -1.325335 -22.044263 -0.645465 -2.266938 -3.495248 8.771087 -14.543257 -4.125121 70.317661 18.581083 9.438788 4.282459 4.855566 4.779258 -13.168582 2.908662 -3.190167 -10.544742 7.580128 -3.266820 -77.071161 -28.123163 6.179954 6.729637 -7.704250 -4.650640 4.004391 -2.776663 -9.198313 4.851043 3.418207 50.063625 2.563176 3.721016 -30.066704 -3.558303 -0.030648 -0.603180 0.263136 -4.725524 -51.042589 20.688754 -174.554766 52.440766 -167.419325 3.267243 -13.048959 0.425513 -0.402615 1.317398 0.093292
-138.315711 77.889442 97.421399 79.789214 -7.414699 -3.496808 2.262170 13.026343 -0.508353 0.227072 1.268128 0.000878 0.340788 1.902883 0.003206 1.983300 10.947549 0.175909 0.586999 8.033120 -0.708595 1.517991 -21.253493 -1.697302 -2.856684 -3.977540 8.775029 -14.429897 -2.858954 70.772346 17.986255 5.595151 4.096857 6.168086 3.157209 -18.375201 2.558031 -3.296252 -10.184785 6.688214 -1.831665 -78.204023 -28.562736 4.995297 6.263417 -6.125497 -6.427573 9.217048 -0.006226 -7.659352 3.187996 -1.508609 49.361532 3.291744 3.231576 -29.777013 -3.040733 -0.179202 -1.514811 -0.315755 -6.343525 -51.042650 21.341451 -170.305102 56.135352 -166.259788 4.293187 -12.293674 0.870691 0.272680 1.627102 1.404570
-136.449270 79.124885 97.767876 84.701101 -7.050064 -3.736943 2.399431 12.458350 -0.282978 0.229892 1.144967 -0.010256 0.347261 1.729719 -0.013722 2.116082 10.469107 0.078776 1.508492 8.975939 -0.611391 3.254204 -19.480663 -1.929439 -3.613102 -3.856501 8.408326 -16.207608 -1.190856 72.105270 18.353880 5.251823 4.232138 6.597519 1.209601 -20.860064 2.948290 -3.529799 -10.177690 5.939921 -0.780701 -79.014325 -26.802741 8.025031 5.976558 -3.929409 -5.987328 9.879748 -0.178986 -4.017994 3.676073 -6.003378 44.577441 1.017398 2.189408 -27.448781 -0.947778 -0.032486 -2.100175 -0.626543 -6.522786 -49.086550 20.085938 -167.492611 63.684884 -165.945600 3.109554 -10.244029 1.206926 0.948940 1.419850 2.795074
-134.248392 80.896274 97.715939 89.487716 -6.215141 -3.583198 2.675217 11.364587 -0.358613 0.238083 0.978979 -0.028285 0.362975 1.493230 -0.041516 2.370547 9.752307 -0.100448 2.083072 10.191736 -0.537156 4.289387 -17.206081 -2.001997 -4.388663 -3.582850 7.611929 -16.839474 1.705158 73.935931 18.728114 3.977875 3.914453 5.930925 1.587479 -20.847992 3.518591 -3.559236 -9.626031 6.588911 0.105882 -79.906495 -24.147202 12.668459 5.212260 -1.170165 -3.363239 8.376285 -0.694686 -1.054776 4.059899 -6.832946 39.547169 0.295227 -0.014382 -22.285200 1.555773 0.126539 -7.705789 -2.373676 -5.076685 -45.608011 16.940879 -165.530581 74.646682 -166.521148 1.163823 -6.300725 1.606473 1.434555 0.948487 3.656819
-131.886927 82.910874 97.397683 93.882606 -5.676103 -3.318139 3.061260 10.216821 -0.452442 0.246996 0.809131 -0.039882 0.380508 1.247258 -0.060021 2.707246 8.910473 -0.248087 2.488741 11.658969 -0.607503 5.035885 -14.462809 -2.244834 -5.355673 -2.960245 6.417058 -16.726215 3.948279 76.042592 17.948439 4.699617 4.262337 5.061457 1.498806 -20.431238 4.018400 -2.870344 -8.456495 8.016559 0.946473 -81.144032 -21.630136 17.144770 4.192600 1.884982 -1.422702 6.643606 -1.260338 1.991671 4.247962 -7.880994 34.229260 -0.808041 -0.806867 -14.675726 4.122737 0.555619 -14.728017 -4.133372 -4.825414 -40.084294 14.494255 -159.761579 88.084315 -165.045636 0.189454 -1.174730 1.603406 1.660101 0.742763 4.212485
-129.287875 84.848898 96.849846 98.385106 -5.551319 -3.075110 3.062954 9.262733 -0.846898 0.255624 0.667748 -0.050784 0.397477 1.039017 -0.077727 3.071753 8.089976 -0.416311 2.770219 13.232868 -0.616850 5.501721 -11.528874 -2.296497 -6.611933 -1.976385 5.565814 -15.319436 5.821378 78.044298 17.234255 5.999699 4.529167 3.557563 1.357866 -17.754462 4.000187 -1.653466 -6.548974 7.964221 2.210363 -82.923202 -19.579142 18.475970 4.442573 4.620950 -0.073101 5.225673 -2.806772 4.849446 3.925476 -11.106002 29.895555 -2.820239 0.916243 -5.543123 6.801646 1.349717 -23.097437 -5.805975 -5.775278 -33.764393 12.323037 24.968173 77.091526 14.218001 -1.171638 4.296514 0.667115 1.812641 0.724220 4.955209
-126.777009 86.497106 96.205673 102.188312 -5.302360 -3.145509 3.399175 8.110495 -1.069438 0.248658 0.533376 -0.058967 0.390497 0.838241 -0.091623 3.321869 7.207171 -0.602453 3.059445 14.736470 -0.555645 5.953025 -8.728594 -2.213049 -7.835888 -0.634632 5.206002 -13.405764 6.904284 79.616158 16.857750 7.452954 4.640121 1.863423 2.187365 -13.177665 3.628744 0.383246 -4.011825 7.346108 2.920965 -85.457425 -17.126637 18.009349 5.437685 5.784025 0.734691 5.181223 -2.995500 6.186930 4.156104 -10.975275 28.120063 -3.254585 0.647558 1.760333 8.500525 2.136339 -30.193660 -6.879957 -3.732644 -27.816386 8.105985 24.960966 62.089499 11.272420 -1.846092 7.761894 -0.265369 1.635277 1.699407 5.479829
-124.553523 87.536721 95.501039 105.675353 -4.758232 -3.552475 3.749183 6.909235 -1.065360 0.231873 0.418175 -0.063527 0.367663 0.663562 -0.100001 3.464962 6.337784 -0.781371 3.284862 15.874138 -0.536152 6.315592 -6.607951 -2.197614 -9.185237 0.790773 4.811618 -11.831967 7.216871 81.136606 16.860456 9.793778 5.021421 1.116274 2.655754 -9.046647 3.379041 2.563841 -1.608149 8.219574 2.637572 -88.130325 -14.468917 17.508417 6.530762 6.871344 1.486080 5.536246 -1.070142 5.234560 4.883629 -8.109678 30.815266 -2.188500 -0.732607 4.586572 8.896917 1.856216 -31.557272 -7.293980 -0.503225 -22.106338 3.506771 19.049136 48.057398 5.700410 -0.978416 8.896134 -1.357187 2.018391 -0.228690 7.560351
-122.536012 87.737806 94.767401 109.247543 -4.671606 -3.742533 3.582348 6.467795 -1.169667 0.199912 0.353723 -0.067445 0.319148 0.565153 -0.107150 3.251114 5.854602 -0.956335 3.613541 16.319151 -0.621222 6.936818 -5.760045 -2.447935 -10.118313 1.789100 4.098243 -10.694015 7.062487 82.648192 17.589774 12.042118 5.767609 0.800091 2.958994 -6.380437 3.757810 3.898886 -0.392305 10.361666 2.034146 -89.624148 -11.303671 16.166744 7.353496 7.206328 1.899254 5.724344 1.386304 2.229889 4.381227 -8.594135 40.500349 -1.078030 0.429267 3.112182 8.122091 0.802310 -26.433799 -6.805868 3.578991 -16.257352 -0.576229 10.086470 36.229127 0.764024 1.313295 8.708261 -1.325587 1.496886 -4.769250 9.605158
-120.740749 86.997003 94.208949 113.097299 -4.768158 -3.893352 2.929865 6.450857 -1.185858 0.158883 0.335187 -0.064256 0.254557 0.537487 -0.102573 2.705805 5.824754 -0.983772 3.966962 16.020205 -0.909105 7.712861 -6.273541 -3.128449 -10.360973 2.106455 3.696511 -10.010987 6.946590 83.598596 19.055789 12.868036 6.635203 0.713034 3.190957 -5.335150 4.083085 4.008980 -0.527205 12.007656 2.041532 -89.625304 -9.228289 13.498034 7.963689 8.776435 1.916877 5.389943 4.084164 -2.004018 3.002795 -12.277475 54.670775 -1.114862 2.546520 -0.957817 7.705882 0.112151 -13.974405 -2.626440 6.223515 -11.927441 -2.842043 6.545368 29.150839 -0.284108 1.802928 10.145726 -1.706860 -0.031541 -13.039692 11.593424
-119.360390 85.683118 93.412503 117.050985 -4.882083 -2.795085 1.993454 6.719277 -2.323635 0.117086 0.338413 -0.059034 0.187830 0.543423 -0.094451 2.023405 5.992864 -0.943805 4.248784 15.325194 -1.346043 8.441907 -7.507574 -4.096845 -10.469372 2.036244 3.913730 -9.488816 6.696361 83.699651 20.630964 12.539994 7.528932 0.902934 3.006111 -5.586648 3.854575 3.705905 -1.583139 10.592962 2.209838 -88.923846 -7.811486 8.760710 8.711916 10.599956 1.523752 5.028481 5.500839 -6.468423 -0.313029 -16.667712 70.663495 -3.590636 4.043892 -5.210177 7.854956 0.520339 -7.711261 -0.018009 7.254634 -10.716065 -4.942047 10.382767 30.055751 1.258675 0.064796 7.797855 -4.457364 -1.649674 -18.390015 15.208282
-118.600723 84.099704 92.326386 121.438325 -4.245190 -1.568877 0.585305 6.431471 -3.570269 0.075754 0.352169 -0.056428 0.121443 0.565386 -0.090361 1.288445 6.214056 -0.929225 4.529210 14.458676 -1.680963 9.158388 -9.060399 -4.903009 -10.012098 1.613117 4.648334 -9.201727 6.011585 83.285770 21.382916 11.390703 7.905324 1.469399 2.585098 -6.371377 3.346151 3.254883 -2.937794 8.305822 2.175204 -87.820348 -7.555510 5.020441 9.030729 12.542180 1.079538 4.563421 4.195620 -11.613199 -3.760147 -34.265129 85.980711 -22.238704 3.836096 -8.606277 7.145560 1.489867 -4.637389 2.194035 5.509617 -10.206071 -6.301788 16.058533 31.520923 2.435525 -7.820979 0.454851 0.564819 -1.059234 -15.595072 12.223827
